# xmcd CD database file
#
# Track frame offsets:
#	150
#	15156
#	28058
#	42922
#	52803
#	72538
#	94319
#	117698
#	137915
#	150149
#	190873
#	212832
#	236209
#	251564
#	268633
#	278892
#	307287
#	321876
#	337983
#	351402
#
# Disc length: 4773 seconds
#
# Revision: 2
# Processed by: cddbd v1.4b41PL1 Copyright (c) Steve Scherf et al.
# Submitted via: Feurio! 1.52 - http://www.feurio.com
#
DISCID=3012a314
DTITLE=Dietmar Königsberg - Musik
DYEAR=1900
DGENRE=
TTITLE0=Klaus Doldinger - Tatort
TTITLE1=Ben E. King - Stand by me
TTITLE2=Harold Melvin and The Blue Notes - If you don't know me by now
TTITLE3=Dean Martin - Your're nobody till somebody loves you
TTITLE4=Oleta Adams - Window of hope
TTITLE5=Eros Ramazzotti and Tina Turner - Cosas de la vida
TTITLE6=Terry Evans - The story of my life
TTITLE7=Tsar - I don't wanna break up
TTITLE8=Prince - Cybersingle
TTITLE9=Carl Cox - Phuture 2000
TTITLE10=Ernest ranglin - Swaziland
TTITLE11=The robert cray band - Take your shoes off- all the way
TTITLE12=Blinker The Star - Pretty pictures
TTITLE13=Confrontation - Brake the law
TTITLE14=Chauncey canfield - Stream of crunchiness
TTITLE15=Halo benders - Virginia reel around the fountain
TTITLE16=- - I_ want_a_lot_now
TTITLE17=Robert lockwood jr. - Train my baby
TTITLE18=Marianne Rosenberg - Er gehört zu mir
TTITLE19=Wencke Myhre - Er hat ein knall rotes Gummiboot
EXTD=
EXTT0=
EXTT1=
EXTT2=
EXTT3=
EXTT4=
EXTT5=
EXTT6=
EXTT7=
EXTT8=
EXTT9=
EXTT10=
EXTT11=
EXTT12=
EXTT13=
EXTT14=
EXTT15=
EXTT16=
EXTT17=
EXTT18=
EXTT19=
PLAYORDER=
